<svg width="30" height="31" viewBox="0 0 30 31" fill="none" xmlns="http://www.w3.org/2000/svg">
<path d="M9.81129 25.112C9.81129 25.237 9.67527 25.337 9.50376 25.337C9.3086 25.3558 9.17258 25.2558 9.17258 25.112C9.17258 24.987 9.3086 24.887 9.48011 24.887C9.65753 24.8683 9.81129 24.9683 9.81129 25.112ZM7.97204 24.8308C7.93065 24.9558 8.04893 25.0995 8.22634 25.137C8.38011 25.1995 8.55753 25.137 8.59301 25.012C8.62849 24.887 8.51613 24.7433 8.33871 24.687C8.18495 24.6433 8.01344 24.7058 7.97204 24.8308ZM10.586 24.7245C10.4145 24.7683 10.2962 24.887 10.314 25.0308C10.3317 25.1558 10.4855 25.237 10.6629 25.1933C10.8344 25.1495 10.9527 25.0308 10.9349 24.9058C10.9172 24.787 10.7575 24.7058 10.586 24.7245ZM14.4774 0.774536C6.27473 0.774536 0 7.35579 0 16.0245C0 22.9558 4.12796 28.887 10.0242 30.9745C10.7812 31.1183 11.0473 30.6245 11.0473 30.2183C11.0473 29.8308 11.0296 27.6933 11.0296 26.3808C11.0296 26.3808 6.88979 27.3183 6.02043 24.5183C6.02043 24.5183 5.34624 22.6995 4.37634 22.2308C4.37634 22.2308 3.02204 21.2495 4.47097 21.2683C4.47097 21.2683 5.94355 21.3933 6.75376 22.8808C8.04892 25.2933 10.2194 24.5995 11.0651 24.187C11.2011 23.187 11.5855 22.4933 12.0113 22.0808C8.70538 21.6933 5.36989 21.187 5.36989 15.1745C5.36989 13.4558 5.81936 12.5933 6.76559 11.4933C6.61183 11.087 6.10914 9.41204 6.91935 7.24954C8.15538 6.84329 11 8.93704 11 8.93704C12.1828 8.58704 13.4543 8.40579 14.714 8.40579C15.9737 8.40579 17.2452 8.58704 18.428 8.93704C18.428 8.93704 21.2726 6.83704 22.5086 7.24954C23.3188 9.41829 22.8161 11.087 22.6624 11.4933C23.6086 12.5995 24.1882 13.462 24.1882 15.1745C24.1882 21.2058 20.7048 21.687 17.3989 22.0808C17.943 22.5745 18.4043 23.512 18.4043 24.9808C18.4043 27.087 18.3866 29.6933 18.3866 30.2058C18.3866 30.612 18.6586 31.1058 19.4097 30.962C25.3237 28.887 29.3333 22.9558 29.3333 16.0245C29.3333 7.35579 22.6801 0.774536 14.4774 0.774536ZM5.74839 22.3308C5.6715 22.3933 5.68925 22.537 5.78978 22.6558C5.88441 22.7558 6.02043 22.7995 6.09731 22.7183C6.17419 22.6558 6.15645 22.512 6.05591 22.3933C5.96129 22.2933 5.82527 22.2495 5.74839 22.3308ZM5.10968 21.8245C5.06828 21.9058 5.12742 22.0058 5.2457 22.0683C5.34032 22.1308 5.4586 22.112 5.5 22.0245C5.5414 21.9433 5.48226 21.8433 5.36398 21.7808C5.2457 21.7433 5.15108 21.762 5.10968 21.8245ZM7.02581 24.0495C6.93118 24.1308 6.96667 24.3183 7.10269 24.437C7.23871 24.5808 7.41021 24.5995 7.4871 24.4995C7.56398 24.4183 7.52849 24.2308 7.41022 24.112C7.28011 23.9683 7.10269 23.9495 7.02581 24.0495ZM6.35161 23.1308C6.25699 23.1933 6.25699 23.3558 6.35161 23.4995C6.44624 23.6433 6.60591 23.7058 6.6828 23.6433C6.77742 23.562 6.77742 23.3995 6.6828 23.2558C6.6 23.112 6.44624 23.0495 6.35161 23.1308Z" fill="#6F6F6F"/>
</svg>
