<svg width="30" height="29" viewBox="0 0 30 29" fill="none" xmlns="http://www.w3.org/2000/svg">
<path d="M14.6781 7.59797C10.5138 7.59797 7.1549 10.8042 7.1549 14.7792C7.1549 18.7542 10.5138 21.9605 14.6781 21.9605C18.8424 21.9605 22.2013 18.7542 22.2013 14.7792C22.2013 10.8042 18.8424 7.59797 14.6781 7.59797ZM14.6781 19.448C11.987 19.448 9.78704 17.3542 9.78704 14.7792C9.78704 12.2042 11.9805 10.1105 14.6781 10.1105C17.3757 10.1105 19.5692 12.2042 19.5692 14.7792C19.5692 17.3542 17.3692 19.448 14.6781 19.448ZM24.2638 7.30422C24.2638 8.23547 23.4781 8.97922 22.5091 8.97922C21.5335 8.97922 20.7543 8.22922 20.7543 7.30422C20.7543 6.37922 21.54 5.62922 22.5091 5.62922C23.4781 5.62922 24.2638 6.37922 24.2638 7.30422ZM29.2466 9.00422C29.1352 6.76047 28.5983 4.77297 26.8763 3.13547C25.1608 1.49797 23.0787 0.985474 20.7281 0.872974C18.3055 0.741724 11.0442 0.741724 8.62157 0.872974C6.27752 0.979224 4.19538 1.49172 2.47336 3.12922C0.751339 4.76672 0.220982 6.75422 0.103125 8.99797C-0.034375 11.3105 -0.034375 18.2417 0.103125 20.5542C0.214434 22.798 0.751339 24.7855 2.47336 26.423C4.19538 28.0605 6.27098 28.573 8.62157 28.6855C11.0442 28.8167 18.3055 28.8167 20.7281 28.6855C23.0787 28.5792 25.1608 28.0667 26.8763 26.423C28.5918 24.7855 29.1287 22.798 29.2466 20.5542C29.3841 18.2417 29.3841 11.3167 29.2466 9.00422ZM26.1168 23.0355C25.6061 24.2605 24.6174 25.2042 23.3275 25.698C21.396 26.4292 16.8126 26.2605 14.6781 26.2605C12.5436 26.2605 7.95371 26.423 6.02871 25.698C4.74538 25.2105 3.75669 24.2667 3.23943 23.0355C2.47336 21.1917 2.65015 16.8167 2.65015 14.7792C2.65015 12.7417 2.47991 8.36047 3.23943 6.52297C3.75015 5.29797 4.73883 4.35422 6.02871 3.86047C7.96026 3.12922 12.5436 3.29797 14.6781 3.29797C16.8126 3.29797 21.4025 3.13547 23.3275 3.86047C24.6108 4.34797 25.5995 5.29172 26.1168 6.52297C26.8829 8.36672 26.7061 12.7417 26.7061 14.7792C26.7061 16.8167 26.8829 21.198 26.1168 23.0355Z" fill="#6F6F6F"/>
</svg>
