<svg width="30" height="29" viewBox="0 0 30 29" fill="none" xmlns="http://www.w3.org/2000/svg">
<path d="M27.9048 0.774536H2.75544C1.60306 0.774536 0.666748 1.68079 0.666748 2.79329V26.7558C0.666748 27.8683 1.60306 28.7745 2.75544 28.7745H27.9048C29.0572 28.7745 30.0001 27.8683 30.0001 26.7558V2.79329C30.0001 1.68079 29.0572 0.774536 27.9048 0.774536ZM9.53222 24.7745H5.18461V11.412H9.53877V24.7745H9.53222ZM7.35841 9.58704C5.96377 9.58704 4.83758 8.50579 4.83758 7.18079C4.83758 5.85579 5.96377 4.77454 7.35841 4.77454C8.74651 4.77454 9.87925 5.85579 9.87925 7.18079C9.87925 8.51204 8.75306 9.58704 7.35841 9.58704ZM25.8292 24.7745H21.4816V18.2745C21.4816 16.7245 21.4489 14.7308 19.2227 14.7308C16.9572 14.7308 16.6102 16.4183 16.6102 18.162V24.7745H12.2626V11.412H16.4334V13.237H16.4923C17.0751 12.187 18.4959 11.0808 20.6108 11.0808C25.0108 11.0808 25.8292 13.8495 25.8292 17.4495V24.7745Z" fill="#6F6F6F"/>
</svg>
