<svg width="30" height="29" viewBox="0 0 30 29" fill="none" xmlns="http://www.w3.org/2000/svg">
<path d="M26.5237 0.774536H3.47611C1.74099 0.774536 0.333252 2.11829 0.333252 3.77454V25.7745C0.333252 27.4308 1.74099 28.7745 3.47611 28.7745H26.5237C28.2588 28.7745 29.6666 27.4308 29.6666 25.7745V3.77454C29.6666 2.11829 28.2588 0.774536 26.5237 0.774536ZM23.3219 10.6995C23.335 10.8745 23.335 11.0558 23.335 11.2308C23.335 16.6495 19.0136 22.8933 11.1172 22.8933C8.68147 22.8933 6.42254 22.2183 4.52373 21.0558C4.87075 21.0933 5.20468 21.1058 5.55825 21.1058C7.56837 21.1058 9.4148 20.4558 10.888 19.3558C9.0023 19.3183 7.41778 18.137 6.87432 16.512C7.53563 16.6058 8.13147 16.6058 8.81242 16.437C6.84813 16.0558 5.37492 14.4058 5.37492 12.412V12.362C5.94456 12.6683 6.61242 12.8558 7.31301 12.8808C6.72401 12.5068 6.24116 11.9995 5.90755 11.404C5.57394 10.8086 5.39995 10.1435 5.40111 9.46829C5.40111 8.70579 5.61063 8.00579 5.98385 7.39954C8.09873 9.88704 11.2743 11.512 14.8362 11.687C14.2273 8.90579 16.4077 6.64954 19.0267 6.64954C20.2642 6.64954 21.3773 7.14329 22.163 7.94329C23.1321 7.76829 24.0618 7.42454 24.8868 6.95579C24.566 7.90579 23.8916 8.70579 23.0011 9.21204C23.8654 9.12454 24.7035 8.89329 25.4761 8.57454C24.8934 9.39329 24.16 10.1183 23.3219 10.6995Z" fill="#6F6F6F"/>
</svg>
